<svg width="160" height="115" viewBox="0 0 160 115" fill="none" xmlns="http://www.w3.org/2000/svg">
<path d="M28.8029 82V56.704H16.2909V82H5.81891V56.704H1.12691V48H5.81891V45.28C5.81891 35.148 11.0549 30.728 19.0109 30.728C20.4389 30.728 22.0709 30.864 23.7029 31.136V40.112H20.7789C17.1749 40.112 16.2909 42.356 16.2909 45.28V48H39.3429V82H28.8029ZM34.1069 42.696C30.7749 42.696 28.1229 40.044 28.1229 36.712C28.1229 33.38 30.7749 30.796 34.1069 30.796C37.3709 30.796 40.0229 33.38 40.0229 36.712C40.0229 40.044 37.3709 42.696 34.1069 42.696ZM57.7598 82H47.2878V48H57.1478L57.8278 51.536C59.9358 48.612 63.8118 46.912 68.2318 46.912C76.3238 46.912 81.0158 52.08 81.0158 60.988V82H70.5438V63.504C70.5438 59.22 68.1638 56.432 64.5598 56.432C60.4118 56.432 57.7598 59.152 57.7598 63.368V82ZM96.346 82.272C94.714 82.272 93.1727 81.7053 91.722 80.572C90.3167 79.4387 89.1607 77.784 88.254 75.608C87.3927 73.432 86.962 70.8027 86.962 67.72C86.962 64.5467 87.4154 61.7133 88.322 59.22C89.2287 56.7267 90.4074 54.6187 91.858 52.896C93.354 51.128 94.9634 49.7907 96.686 48.884C98.454 47.9773 100.177 47.524 101.854 47.524C103.713 47.524 105.367 48.1133 106.818 49.292C108.269 50.4253 109.266 52.216 109.81 54.664C110.218 52.3973 110.558 50.244 110.83 48.204C111.147 46.1187 111.306 44.2827 111.306 42.696C111.306 40.6107 111.034 39.092 110.49 38.14V37.732C111.533 36.5533 112.666 35.692 113.89 35.148C115.159 34.5587 116.361 34.264 117.494 34.264C118.99 34.264 120.259 34.74 121.302 35.692C122.345 36.5987 122.866 37.9133 122.866 39.636C122.866 40.588 122.707 41.9933 122.39 43.852C122.073 45.7107 121.687 47.8413 121.234 50.244C120.781 52.6013 120.305 55.0493 119.806 57.588C119.353 60.0813 118.967 62.484 118.65 64.796C118.333 67.0627 118.174 69.0347 118.174 70.712C118.174 72.1173 118.31 73.2507 118.582 74.112C118.899 74.928 119.398 75.336 120.078 75.336C120.577 75.336 121.075 75.1773 121.574 74.86C122.118 74.4973 122.481 74.0893 122.662 73.636L123.138 73.976C123.138 75.472 122.662 76.8547 121.71 78.124C120.758 79.348 119.557 80.3453 118.106 81.116C116.655 81.8867 115.159 82.272 113.618 82.272C111.941 82.272 110.603 81.8187 109.606 80.912C108.654 79.96 107.974 78.7587 107.566 77.308C107.158 75.8573 106.931 74.3613 106.886 72.82C105.481 76.084 103.826 78.4867 101.922 80.028C100.063 81.524 98.2047 82.272 96.346 82.272ZM100.902 73.636C102.081 73.636 103.395 72.5707 104.846 70.44C106.297 68.3093 107.566 65.204 108.654 61.124L109.062 59.016C108.337 57.3387 107.543 56.16 106.682 55.48C105.866 54.7547 105.073 54.392 104.302 54.392C103.169 54.392 102.103 55.0267 101.106 56.296C100.109 57.52 99.2927 59.1067 98.658 61.056C98.0687 62.96 97.774 64.9773 97.774 67.108C97.774 69.148 98.0687 70.7573 98.658 71.936C99.2474 73.0693 99.9954 73.636 100.902 73.636ZM140.077 95.6C137.81 95.6 135.974 94.8973 134.569 93.492C133.209 92.132 132.529 90.2733 132.529 87.916C132.529 86.692 132.733 85.332 133.141 83.836C133.594 82.3853 134.32 80.844 135.317 79.212C133.096 79.076 131.26 78.328 129.809 76.968C128.404 75.608 127.701 73.5453 127.701 70.78C127.701 69.148 127.905 67.4027 128.313 65.544C128.766 63.64 129.197 61.872 129.605 60.24C130.013 58.5627 130.217 57.2707 130.217 56.364C130.217 55.684 130.081 55.208 129.809 54.936C129.537 54.6187 129.22 54.46 128.857 54.46C128.494 54.46 128.086 54.6187 127.633 54.936C127.225 55.208 126.908 55.6387 126.681 56.228L125.525 55.004C125.797 53.5987 126.386 52.352 127.293 51.264C128.2 50.176 129.31 49.3147 130.625 48.68C131.94 48.0453 133.3 47.728 134.705 47.728C136.292 47.728 137.674 48.2493 138.853 49.292C140.032 50.2893 140.621 52.1253 140.621 54.8C140.621 56.4773 140.417 58.2907 140.009 60.24C139.601 62.144 139.193 63.9573 138.785 65.68C138.377 67.3573 138.173 68.6947 138.173 69.692C138.173 70.5987 138.354 71.2787 138.717 71.732C139.125 72.14 139.578 72.344 140.077 72.344C140.712 72.344 141.437 72.004 142.253 71.324C143.069 70.5987 143.84 69.42 144.565 67.788C145.29 66.156 145.766 63.9573 145.993 61.192C146.084 60.3307 146.152 59.2427 146.197 57.928C146.242 56.568 146.288 55.3213 146.333 54.188C146.378 53.0093 146.401 52.284 146.401 52.012C146.401 50.38 146.99 49.2467 148.169 48.612C149.393 47.932 150.73 47.592 152.181 47.592C153.45 47.592 154.652 47.8413 155.785 48.34C156.918 48.8387 157.689 49.6773 158.097 50.856L158.233 51.264C157.825 51.6267 157.462 52.8507 157.145 54.936C156.873 57.0213 156.533 59.8093 156.125 63.3C155.853 65.5667 155.513 68.128 155.105 70.984C154.697 73.84 154.13 76.7187 153.405 79.62C152.725 82.476 151.796 85.1053 150.617 87.508C149.484 89.956 148.056 91.9053 146.333 93.356C144.61 94.852 142.525 95.6 140.077 95.6ZM138.445 87.78C139.85 87.78 141.097 86.488 142.185 83.904C143.318 81.3653 144.202 77.7387 144.837 73.024C141.936 76.7413 139.941 79.6653 138.853 81.796C137.765 83.9267 137.221 85.468 137.221 86.42C137.221 87.3267 137.629 87.78 138.445 87.78Z" fill="url(#paint0_linear_26_100)"/>
<path d="M5.60273 111.156C4.00373 111.156 2.91173 110.012 2.91173 108.361C2.91173 106.203 4.38073 104.539 6.27873 104.539C8.00773 104.539 9.03473 105.826 8.76173 107.529L8.69673 107.958H3.76973C3.75673 108.075 3.75673 108.192 3.75673 108.322C3.75673 109.596 4.48473 110.415 5.61573 110.415C6.53873 110.415 7.33173 109.934 7.64373 109.128H8.50173C8.08573 110.389 6.94173 111.156 5.60273 111.156ZM6.25273 105.28C5.13473 105.28 4.21173 106.125 3.88673 107.334H7.92973C8.12473 106.099 7.42273 105.28 6.25273 105.28ZM10.4725 111H9.62755L10.6155 104.708H11.3565L11.2915 105.839C11.8765 104.968 12.5915 104.539 13.5535 104.539C14.9965 104.539 15.8415 105.605 15.5945 107.165L14.9965 111H14.1385L14.7235 107.347C14.9445 106.034 14.4375 105.319 13.3325 105.319C12.1105 105.319 11.2265 106.242 10.9925 107.724L10.4725 111ZM16.7877 108.361C16.7877 106.203 18.2567 104.539 20.1547 104.539C21.5717 104.539 22.4687 105.319 22.6247 106.684H21.7407C21.6497 105.839 21.0387 105.319 20.1287 105.319C18.7377 105.319 17.6587 106.632 17.6587 108.322C17.6587 109.57 18.3867 110.389 19.4917 110.389C20.4147 110.389 21.1687 109.869 21.4807 109.024H22.3647C21.9617 110.337 20.8437 111.156 19.4787 111.156C17.8797 111.156 16.7877 110.012 16.7877 108.361ZM23.402 108.296C23.402 106.229 25.014 104.539 26.99 104.539C28.641 104.539 29.759 105.709 29.759 107.399C29.759 109.479 28.147 111.156 26.184 111.156C24.533 111.156 23.402 109.999 23.402 108.296ZM24.273 108.257C24.273 109.57 25.04 110.389 26.262 110.389C27.705 110.389 28.888 109.063 28.888 107.438C28.888 106.125 28.121 105.306 26.899 105.306C25.456 105.306 24.273 106.632 24.273 108.257ZM31.4833 111H30.6383L31.6263 104.708H32.3673L32.3023 105.839C32.8873 104.968 33.6023 104.539 34.5643 104.539C36.0073 104.539 36.8523 105.605 36.6053 107.165L36.0073 111H35.1493L35.7343 107.347C35.9553 106.034 35.4483 105.319 34.3433 105.319C33.1213 105.319 32.2373 106.242 32.0033 107.724L31.4833 111ZM39.1764 111H38.3184L39.2024 105.436H37.9804L38.0974 104.708H39.3194L39.6314 102.719H40.4764L40.1644 104.708H41.3994L41.2824 105.436H40.0474L39.1764 111ZM45.7806 104.63L45.6636 105.397H45.1696C44.0646 105.397 43.1936 106.177 43.0116 107.373L42.4266 111H41.5816L42.5696 104.708H43.3366L43.2456 105.761C43.5966 105.046 44.3246 104.565 45.1696 104.565C45.3776 104.565 45.5856 104.591 45.7806 104.63ZM48.424 111.156C46.825 111.156 45.733 110.012 45.733 108.361C45.733 106.203 47.202 104.539 49.1 104.539C50.829 104.539 51.856 105.826 51.583 107.529L51.518 107.958H46.591C46.578 108.075 46.578 108.192 46.578 108.322C46.578 109.596 47.306 110.415 48.437 110.415C49.36 110.415 50.153 109.934 50.465 109.128H51.323C50.907 110.389 49.763 111.156 48.424 111.156ZM49.074 105.28C47.956 105.28 47.033 106.125 46.708 107.334H50.751C50.946 106.099 50.244 105.28 49.074 105.28ZM56.0038 108.4C56.0038 106.19 57.4468 104.539 59.3448 104.539C60.4238 104.539 61.2428 105.085 61.5158 105.995L61.8408 104.708H62.5688L61.1388 113.743H60.2938L60.9178 109.752C60.3458 110.688 59.5398 111.156 58.4998 111.156C57.0308 111.156 56.0038 110.025 56.0038 108.4ZM56.8618 108.374C56.8618 109.596 57.5638 110.389 58.6688 110.389C60.1248 110.389 61.2558 109.037 61.2558 107.269C61.2558 106.034 60.5928 105.306 59.4098 105.306C57.9668 105.306 56.8618 106.632 56.8618 108.374ZM68.7727 104.708H69.6177L68.6297 111H67.8887L67.9667 109.869C67.3947 110.74 66.7057 111.156 65.7437 111.156C64.3527 111.156 63.5207 110.09 63.7677 108.543L64.3787 104.708H65.2237L64.6387 108.348C64.4307 109.674 64.9377 110.376 65.9777 110.376C67.1867 110.376 68.0187 109.466 68.2527 107.984L68.7727 104.708ZM72.2696 111.156C71.1516 111.156 70.4236 110.493 70.4236 109.479C70.4236 108.231 71.3856 107.425 73.0626 107.282L75.1166 107.126L75.1426 106.944C75.3506 105.865 74.8306 105.267 73.7126 105.267C72.6466 105.267 72.0356 105.735 71.8926 106.632H71.0736C71.2686 105.306 72.2696 104.539 73.7646 104.539C75.3636 104.539 76.2346 105.462 76.0006 106.918L75.3636 111H74.6226L74.7006 109.895C74.2196 110.675 73.2966 111.156 72.2696 111.156ZM72.5296 110.441C73.8166 110.441 74.7526 109.544 74.9736 108.127L75.0256 107.776L73.1536 107.932C71.9446 108.036 71.2816 108.582 71.2816 109.44C71.2816 110.051 71.7626 110.441 72.5296 110.441ZM78.0506 111H77.2056L78.7006 101.523H79.5456L78.0506 111ZM79.9853 108.4C79.9853 106.19 81.4283 104.539 83.3263 104.539C84.4053 104.539 85.2243 105.085 85.4973 105.995L85.8223 104.708H86.5503L85.1203 113.743H84.2753L84.8993 109.752C84.3273 110.688 83.5213 111.156 82.4813 111.156C81.0123 111.156 79.9853 110.025 79.9853 108.4ZM80.8433 108.374C80.8433 109.596 81.5453 110.389 82.6503 110.389C84.1063 110.389 85.2373 109.037 85.2373 107.269C85.2373 106.034 84.5743 105.306 83.3913 105.306C81.9483 105.306 80.8433 106.632 80.8433 108.374ZM92.7541 104.708H93.5991L92.6111 111H91.8701L91.9481 109.869C91.3761 110.74 90.6871 111.156 89.7251 111.156C88.3341 111.156 87.5021 110.09 87.7491 108.543L88.3601 104.708H89.2051L88.6201 108.348C88.4121 109.674 88.9191 110.376 89.9591 110.376C91.1681 110.376 92.0001 109.466 92.2341 107.984L92.7541 104.708ZM97.0471 111.156C95.4481 111.156 94.3561 110.012 94.3561 108.361C94.3561 106.203 95.8251 104.539 97.7231 104.539C99.4521 104.539 100.479 105.826 100.206 107.529L100.141 107.958H95.2141C95.2011 108.075 95.2011 108.192 95.2011 108.322C95.2011 109.596 95.9291 110.415 97.0601 110.415C97.9831 110.415 98.7761 109.934 99.0881 109.128H99.9461C99.5301 110.389 98.3861 111.156 97.0471 111.156ZM97.6971 105.28C96.5791 105.28 95.6561 106.125 95.3311 107.334H99.3741C99.5691 106.099 98.8671 105.28 97.6971 105.28ZM105.271 104.63L105.154 105.397H104.66C103.555 105.397 102.684 106.177 102.502 107.373L101.917 111H101.072L102.06 104.708H102.827L102.736 105.761C103.087 105.046 103.815 104.565 104.66 104.565C104.868 104.565 105.076 104.591 105.271 104.63ZM108.304 114.12L109.825 104.5H111.645L111.632 105.293C112.1 104.682 112.776 104.318 113.673 104.318C115.207 104.318 116.338 105.54 116.338 107.308C116.338 109.596 114.895 111.156 112.945 111.156C112.048 111.156 111.19 110.727 110.839 110.142L110.241 114.12H108.304ZM111.229 108.036C111.229 108.881 111.749 109.453 112.581 109.453C113.582 109.453 114.401 108.569 114.401 107.438C114.401 106.593 113.881 106.021 113.049 106.021C112.048 106.021 111.229 106.905 111.229 108.036ZM118.977 111.169C117.794 111.169 116.988 110.441 116.988 109.362C116.988 108.01 117.937 107.204 119.666 107.061L121.486 106.905L121.499 106.788C121.577 106.138 121.2 105.787 120.472 105.787C119.731 105.787 119.315 106.099 119.224 106.723H117.534C117.768 105.176 118.899 104.305 120.68 104.305C122.591 104.305 123.618 105.423 123.332 107.191L122.721 111H121.018L121.031 110.129C120.732 110.753 119.9 111.169 118.977 111.169ZM119.757 109.726C120.563 109.726 121.148 109.271 121.252 108.543L121.304 108.192L120.264 108.283C119.302 108.361 118.951 108.634 118.951 109.128C118.951 109.505 119.237 109.726 119.757 109.726ZM126.097 111H124.16L125.707 101.198H127.644L126.097 111ZM129.615 111.169C128.432 111.169 127.626 110.441 127.626 109.362C127.626 108.01 128.575 107.204 130.304 107.061L132.124 106.905L132.137 106.788C132.215 106.138 131.838 105.787 131.11 105.787C130.369 105.787 129.953 106.099 129.862 106.723H128.172C128.406 105.176 129.537 104.305 131.318 104.305C133.229 104.305 134.256 105.423 133.97 107.191L133.359 111H131.656L131.669 110.129C131.37 110.753 130.538 111.169 129.615 111.169ZM130.395 109.726C131.201 109.726 131.786 109.271 131.89 108.543L131.942 108.192L130.902 108.283C129.94 108.361 129.589 108.634 129.589 109.128C129.589 109.505 129.875 109.726 130.395 109.726ZM136.186 111L134.73 104.5H136.68L137.109 106.879C137.239 107.62 137.343 108.283 137.434 108.907C137.72 108.283 138.097 107.464 138.396 106.879L139.644 104.5H141.789L138.097 111H136.186ZM146.934 104.487L146.648 106.307H146.024C144.906 106.307 144.139 106.84 143.944 108.114L143.489 111H141.552L142.579 104.5H144.399L144.36 105.449C144.724 104.812 145.374 104.396 146.193 104.396C146.44 104.396 146.7 104.422 146.934 104.487ZM148.671 111.169C147.488 111.169 146.682 110.441 146.682 109.362C146.682 108.01 147.631 107.204 149.36 107.061L151.18 106.905L151.193 106.788C151.271 106.138 150.894 105.787 150.166 105.787C149.425 105.787 149.009 106.099 148.918 106.723H147.228C147.462 105.176 148.593 104.305 150.374 104.305C152.285 104.305 153.312 105.423 153.026 107.191L152.415 111H150.712L150.725 110.129C150.426 110.753 149.594 111.169 148.671 111.169ZM149.451 109.726C150.257 109.726 150.842 109.271 150.946 108.543L150.998 108.192L149.958 108.283C148.996 108.361 148.645 108.634 148.645 109.128C148.645 109.505 148.931 109.726 149.451 109.726ZM155.024 111.169C154.413 111.169 154.036 110.792 154.036 110.194C154.036 109.466 154.647 108.855 155.388 108.855C155.999 108.855 156.389 109.245 156.389 109.843C156.389 110.558 155.752 111.169 155.024 111.169Z" fill="#939393"/>
<defs>
<linearGradient id="paint0_linear_26_100" x1="80" y1="0" x2="80" y2="101" gradientUnits="userSpaceOnUse">
<stop stop-color="#215BFB"/>
<stop offset="0.475962" stop-color="#6B2CF8"/>
<stop offset="1" stop-color="#9418FB"/>
</linearGradient>
</defs>
</svg>
