<svg width="158" height="85" viewBox="0 0 158 85" fill="none" xmlns="http://www.w3.org/2000/svg">
<path d="M27.803 52V26.704H15.291V52H4.81895V26.704H0.126953V18H4.81895V15.28C4.81895 5.14803 10.055 0.728027 18.011 0.728027C19.439 0.728027 21.071 0.864026 22.703 1.13603V10.112H19.779C16.175 10.112 15.291 12.356 15.291 15.28V18H38.343V52H27.803ZM33.107 12.696C29.775 12.696 27.123 10.044 27.123 6.71203C27.123 3.38003 29.775 0.796026 33.107 0.796026C36.371 0.796026 39.023 3.38003 39.023 6.71203C39.023 10.044 36.371 12.696 33.107 12.696Z" fill="url(#paint0_linear_31_140)"/>
<path d="M56.7598 52H46.2878V18H56.1478L56.8278 21.536C58.9358 18.612 62.8118 16.912 67.2318 16.912C75.3238 16.912 80.0158 22.08 80.0158 30.988V52H69.5438V33.504C69.5438 29.22 67.1638 26.432 63.5598 26.432C59.4118 26.432 56.7598 29.152 56.7598 33.368V52Z" fill="url(#paint1_linear_31_140)"/>
<path d="M95.3461 52.272C93.7141 52.272 92.1727 51.7054 90.7221 50.572C89.3167 49.4387 88.1607 47.784 87.2541 45.608C86.3927 43.432 85.9621 40.8027 85.9621 37.72C85.9621 34.5467 86.4154 31.7134 87.3221 29.22C88.2287 26.7267 89.4074 24.6187 90.8581 22.896C92.3541 21.128 93.9634 19.7907 95.6861 18.884C97.4541 17.9774 99.1767 17.524 100.854 17.524C102.713 17.524 104.367 18.1134 105.818 19.292C107.269 20.4254 108.266 22.216 108.81 24.664C109.218 22.3974 109.558 20.244 109.83 18.204C110.147 16.1187 110.306 14.2827 110.306 12.696C110.306 10.6107 110.034 9.09203 109.49 8.14003V7.73203C110.533 6.55336 111.666 5.69203 112.89 5.14803C114.159 4.55869 115.361 4.26403 116.494 4.26403C117.99 4.26403 119.259 4.74003 120.302 5.69202C121.345 6.59869 121.866 7.91336 121.866 9.63603C121.866 10.588 121.707 11.9934 121.39 13.852C121.073 15.7107 120.687 17.8414 120.234 20.244C119.781 22.6014 119.305 25.0494 118.806 27.588C118.353 30.0814 117.967 32.484 117.65 34.796C117.333 37.0627 117.174 39.0347 117.174 40.712C117.174 42.1174 117.31 43.2507 117.582 44.112C117.899 44.928 118.398 45.336 119.078 45.336C119.577 45.336 120.075 45.1774 120.574 44.86C121.118 44.4974 121.481 44.0894 121.662 43.636L122.138 43.976C122.138 45.472 121.662 46.8547 120.71 48.124C119.758 49.348 118.557 50.3454 117.106 51.116C115.655 51.8867 114.159 52.272 112.618 52.272C110.941 52.272 109.603 51.8187 108.606 50.912C107.654 49.96 106.974 48.7587 106.566 47.308C106.158 45.8574 105.931 44.3614 105.886 42.82C104.481 46.084 102.826 48.4867 100.922 50.028C99.0634 51.524 97.2047 52.272 95.3461 52.272ZM99.9021 43.636C101.081 43.636 102.395 42.5707 103.846 40.44C105.297 38.3094 106.566 35.204 107.654 31.124L108.062 29.016C107.337 27.3387 106.543 26.16 105.682 25.48C104.866 24.7547 104.073 24.392 103.302 24.392C102.169 24.392 101.103 25.0267 100.106 26.296C99.1087 27.52 98.2927 29.1067 97.6581 31.056C97.0687 32.96 96.7741 34.9774 96.7741 37.108C96.7741 39.148 97.0687 40.7574 97.6581 41.936C98.2474 43.0694 98.9954 43.636 99.9021 43.636Z" fill="url(#paint2_linear_31_140)"/>
<path d="M139.077 65.6C136.81 65.6 134.974 64.8974 133.569 63.492C132.209 62.132 131.529 60.2734 131.529 57.916C131.529 56.692 131.733 55.332 132.141 53.836C132.594 52.3854 133.32 50.844 134.317 49.212C132.096 49.076 130.26 48.328 128.809 46.968C127.404 45.608 126.701 43.5454 126.701 40.78C126.701 39.148 126.905 37.4027 127.313 35.544C127.766 33.64 128.197 31.872 128.605 30.24C129.013 28.5627 129.217 27.2707 129.217 26.364C129.217 25.684 129.081 25.208 128.809 24.936C128.537 24.6187 128.22 24.46 127.857 24.46C127.494 24.46 127.086 24.6187 126.633 24.936C126.225 25.208 125.908 25.6387 125.681 26.228L124.525 25.004C124.797 23.5987 125.386 22.352 126.293 21.264C127.2 20.176 128.31 19.3147 129.625 18.68C130.94 18.0454 132.3 17.728 133.705 17.728C135.292 17.728 136.674 18.2494 137.853 19.292C139.032 20.2894 139.621 22.1254 139.621 24.8C139.621 26.4774 139.417 28.2907 139.009 30.24C138.601 32.144 138.193 33.9574 137.785 35.68C137.377 37.3574 137.173 38.6947 137.173 39.692C137.173 40.5987 137.354 41.2787 137.717 41.732C138.125 42.14 138.578 42.344 139.077 42.344C139.712 42.344 140.437 42.004 141.253 41.324C142.069 40.5987 142.84 39.42 143.565 37.788C144.29 36.156 144.766 33.9574 144.993 31.192C145.084 30.3307 145.152 29.2427 145.197 27.928C145.242 26.568 145.288 25.3214 145.333 24.188C145.378 23.0094 145.401 22.284 145.401 22.012C145.401 20.38 145.99 19.2467 147.169 18.612C148.393 17.932 149.73 17.592 151.181 17.592C152.45 17.592 153.652 17.8414 154.785 18.34C155.918 18.8387 156.689 19.6774 157.097 20.856L157.233 21.264C156.825 21.6267 156.462 22.8507 156.145 24.936C155.873 27.0214 155.533 29.8094 155.125 33.3C154.853 35.5667 154.513 38.128 154.105 40.984C153.697 43.84 153.13 46.7187 152.405 49.62C151.725 52.476 150.796 55.1054 149.617 57.508C148.484 59.956 147.056 61.9054 145.333 63.356C143.61 64.852 141.525 65.6 139.077 65.6ZM137.445 57.78C138.85 57.78 140.097 56.488 141.185 53.904C142.318 51.3654 143.202 47.7387 143.837 43.024C140.936 46.7414 138.941 49.6654 137.853 51.796C136.765 53.9267 136.221 55.468 136.221 56.42C136.221 57.3267 136.629 57.78 137.445 57.78Z" fill="url(#paint3_linear_31_140)"/>
<path d="M4.60277 81.156C3.00377 81.156 1.91177 80.012 1.91177 78.361C1.91177 76.203 3.38077 74.539 5.27877 74.539C7.00777 74.539 8.03477 75.826 7.76177 77.529L7.69677 77.958H2.76977C2.75677 78.075 2.75677 78.192 2.75677 78.322C2.75677 79.596 3.48477 80.415 4.61577 80.415C5.53877 80.415 6.33177 79.934 6.64377 79.128H7.50177C7.08577 80.389 5.94177 81.156 4.60277 81.156ZM5.25277 75.28C4.13477 75.28 3.21177 76.125 2.88677 77.334H6.92977C7.12477 76.099 6.42277 75.28 5.25277 75.28Z" fill="#939393"/>
<path d="M9.47259 81H8.62759L9.61559 74.708H10.3566L10.2916 75.839C10.8766 74.968 11.5916 74.539 12.5536 74.539C13.9966 74.539 14.8416 75.605 14.5946 77.165L13.9966 81H13.1386L13.7236 77.347C13.9446 76.034 13.4376 75.319 12.3326 75.319C11.1106 75.319 10.2266 76.242 9.99259 77.724L9.47259 81Z" fill="#939393"/>
<path d="M15.7878 78.361C15.7878 76.203 17.2568 74.539 19.1548 74.539C20.5718 74.539 21.4688 75.319 21.6248 76.684H20.7407C20.6497 75.839 20.0388 75.319 19.1287 75.319C17.7377 75.319 16.6588 76.632 16.6588 78.322C16.6588 79.57 17.3868 80.389 18.4918 80.389C19.4148 80.389 20.1687 79.869 20.4807 79.024H21.3647C20.9617 80.337 19.8438 81.156 18.4788 81.156C16.8798 81.156 15.7878 80.012 15.7878 78.361Z" fill="#939393"/>
<path d="M22.402 78.296C22.402 76.229 24.014 74.539 25.99 74.539C27.641 74.539 28.759 75.709 28.759 77.399C28.759 79.479 27.147 81.156 25.184 81.156C23.533 81.156 22.402 79.999 22.402 78.296ZM23.273 78.257C23.273 79.57 24.04 80.389 25.262 80.389C26.705 80.389 27.888 79.063 27.888 77.438C27.888 76.125 27.121 75.306 25.899 75.306C24.456 75.306 23.273 76.632 23.273 78.257Z" fill="#939393"/>
<path d="M30.4833 81H29.6383L30.6263 74.708H31.3673L31.3023 75.839C31.8873 74.968 32.6023 74.539 33.5643 74.539C35.0073 74.539 35.8523 75.605 35.6053 77.165L35.0073 81H34.1493L34.7343 77.347C34.9553 76.034 34.4483 75.319 33.3433 75.319C32.1213 75.319 31.2373 76.242 31.0033 77.724L30.4833 81Z" fill="#939393"/>
<path d="M38.1765 81H37.3185L38.2025 75.436H36.9805L37.0975 74.708H38.3195L38.6315 72.719H39.4765L39.1645 74.708H40.3995L40.2825 75.436H39.0475L38.1765 81Z" fill="#939393"/>
<path d="M44.7807 74.63L44.6637 75.397H44.1697C43.0647 75.397 42.1937 76.177 42.0117 77.373L41.4267 81H40.5817L41.5697 74.708H42.3367L42.2457 75.761C42.5967 75.046 43.3247 74.565 44.1697 74.565C44.3777 74.565 44.5857 74.591 44.7807 74.63Z" fill="#939393"/>
<path d="M47.4241 81.156C45.8251 81.156 44.7331 80.012 44.7331 78.361C44.7331 76.203 46.2021 74.539 48.1001 74.539C49.8291 74.539 50.8561 75.826 50.5831 77.529L50.5181 77.958H45.5911C45.5781 78.075 45.5781 78.192 45.5781 78.322C45.5781 79.596 46.3061 80.415 47.4371 80.415C48.3601 80.415 49.1531 79.934 49.4651 79.128H50.3231C49.9071 80.389 48.7631 81.156 47.4241 81.156ZM48.0741 75.28C46.9561 75.28 46.0331 76.125 45.7081 77.334H49.7511C49.9461 76.099 49.2441 75.28 48.0741 75.28Z" fill="#939393"/>
<path d="M55.0039 78.4C55.0039 76.19 56.4469 74.539 58.3449 74.539C59.4239 74.539 60.2429 75.085 60.5159 75.995L60.8409 74.708H61.5689L60.1389 83.743H59.2939L59.9179 79.752C59.3459 80.688 58.5399 81.156 57.4999 81.156C56.0309 81.156 55.0039 80.025 55.0039 78.4ZM55.8619 78.374C55.8619 79.596 56.5639 80.389 57.6689 80.389C59.1249 80.389 60.2559 79.037 60.2559 77.269C60.2559 76.034 59.5929 75.306 58.4099 75.306C56.9669 75.306 55.8619 76.632 55.8619 78.374Z" fill="#939393"/>
<path d="M67.7727 74.708H68.6177L67.6297 81H66.8887L66.9667 79.869C66.3947 80.74 65.7057 81.156 64.7437 81.156C63.3527 81.156 62.5207 80.09 62.7677 78.543L63.3787 74.708H64.2237L63.6387 78.348C63.4307 79.674 63.9377 80.376 64.9777 80.376C66.1867 80.376 67.0187 79.466 67.2527 77.984L67.7727 74.708Z" fill="#939393"/>
<path d="M71.2696 81.156C70.1516 81.156 69.4236 80.493 69.4236 79.479C69.4236 78.231 70.3856 77.425 72.0626 77.282L74.1166 77.126L74.1426 76.944C74.3506 75.865 73.8306 75.267 72.7126 75.267C71.6466 75.267 71.0356 75.735 70.8926 76.632H70.0736C70.2686 75.306 71.2696 74.539 72.7646 74.539C74.3636 74.539 75.2346 75.462 75.0006 76.918L74.3636 81H73.6226L73.7006 79.895C73.2196 80.675 72.2966 81.156 71.2696 81.156ZM71.5296 80.441C72.8166 80.441 73.7526 79.544 73.9736 78.127L74.0256 77.776L72.1536 77.932C70.9446 78.036 70.2816 78.582 70.2816 79.44C70.2816 80.051 70.7626 80.441 71.5296 80.441Z" fill="#939393"/>
<path d="M77.0507 81H76.2057L77.7007 71.523H78.5457L77.0507 81Z" fill="#939393"/>
<path d="M78.9853 78.4C78.9853 76.19 80.4283 74.539 82.3263 74.539C83.4053 74.539 84.2243 75.085 84.4973 75.995L84.8223 74.708H85.5503L84.1203 83.743H83.2753L83.8993 79.752C83.3273 80.688 82.5213 81.156 81.4813 81.156C80.0123 81.156 78.9853 80.025 78.9853 78.4ZM79.8433 78.374C79.8433 79.596 80.5453 80.389 81.6503 80.389C83.1063 80.389 84.2373 79.037 84.2373 77.269C84.2373 76.034 83.5743 75.306 82.3913 75.306C80.9483 75.306 79.8433 76.632 79.8433 78.374Z" fill="#939393"/>
<path d="M91.7542 74.708H92.5992L91.6112 81H90.8702L90.9482 79.869C90.3762 80.74 89.6872 81.156 88.7252 81.156C87.3342 81.156 86.5022 80.09 86.7492 78.543L87.3602 74.708H88.2052L87.6202 78.348C87.4122 79.674 87.9192 80.376 88.9592 80.376C90.1682 80.376 91.0002 79.466 91.2342 77.984L91.7542 74.708Z" fill="#939393"/>
<path d="M96.0471 81.156C94.4481 81.156 93.3561 80.012 93.3561 78.361C93.3561 76.203 94.8251 74.539 96.7231 74.539C98.4521 74.539 99.4791 75.826 99.2061 77.529L99.1411 77.958H94.2141C94.2011 78.075 94.2011 78.192 94.2011 78.322C94.2011 79.596 94.9291 80.415 96.0601 80.415C96.9831 80.415 97.7761 79.934 98.0881 79.128H98.9461C98.5301 80.389 97.3861 81.156 96.0471 81.156ZM96.6971 75.28C95.5791 75.28 94.6561 76.125 94.3311 77.334H98.3741C98.5691 76.099 97.8671 75.28 96.6971 75.28Z" fill="#939393"/>
<path d="M104.271 74.63L104.154 75.397H103.66C102.555 75.397 101.684 76.177 101.502 77.373L100.917 81H100.072L101.06 74.708H101.827L101.736 75.761C102.087 75.046 102.815 74.565 103.66 74.565C103.868 74.565 104.076 74.591 104.271 74.63Z" fill="#939393"/>
<path d="M107.304 84.12L108.826 74.5H110.646L110.632 75.293C111.1 74.682 111.776 74.318 112.674 74.318C114.208 74.318 115.339 75.54 115.339 77.308C115.339 79.596 113.896 81.156 111.946 81.156C111.049 81.156 110.191 80.727 109.84 80.142L109.242 84.12H107.304ZM110.229 78.036C110.229 78.881 110.749 79.453 111.581 79.453C112.582 79.453 113.401 78.569 113.401 77.438C113.401 76.593 112.881 76.021 112.049 76.021C111.048 76.021 110.229 76.905 110.229 78.036Z" fill="#939393"/>
<path d="M117.977 81.169C116.794 81.169 115.988 80.441 115.988 79.362C115.988 78.01 116.937 77.204 118.666 77.061L120.486 76.905L120.499 76.788C120.577 76.138 120.2 75.787 119.472 75.787C118.731 75.787 118.315 76.099 118.224 76.723H116.534C116.768 75.176 117.899 74.305 119.68 74.305C121.591 74.305 122.618 75.423 122.332 77.191L121.721 81H120.018L120.031 80.129C119.732 80.753 118.9 81.169 117.977 81.169ZM118.757 79.726C119.563 79.726 120.148 79.271 120.252 78.543L120.304 78.192L119.264 78.283C118.302 78.361 117.951 78.634 117.951 79.128C117.951 79.505 118.237 79.726 118.757 79.726Z" fill="#939393"/>
<path d="M125.097 81H123.16L124.707 71.198H126.644L125.097 81Z" fill="#939393"/>
<path d="M128.615 81.169C127.432 81.169 126.626 80.441 126.626 79.362C126.626 78.01 127.575 77.204 129.304 77.061L131.124 76.905L131.137 76.788C131.215 76.138 130.838 75.787 130.11 75.787C129.369 75.787 128.953 76.099 128.862 76.723H127.172C127.406 75.176 128.537 74.305 130.318 74.305C132.229 74.305 133.256 75.423 132.97 77.191L132.359 81H130.656L130.669 80.129C130.37 80.753 129.538 81.169 128.615 81.169ZM129.395 79.726C130.201 79.726 130.786 79.271 130.89 78.543L130.942 78.192L129.902 78.283C128.94 78.361 128.589 78.634 128.589 79.128C128.589 79.505 128.875 79.726 129.395 79.726Z" fill="#939393"/>
<path d="M135.186 81L133.73 74.5H135.68L136.109 76.879C136.239 77.62 136.343 78.283 136.434 78.907C136.72 78.283 137.097 77.464 137.396 76.879L138.644 74.5H140.789L137.097 81H135.186Z" fill="#939393"/>
<path d="M145.934 74.487L145.648 76.307H145.024C143.906 76.307 143.139 76.84 142.944 78.114L142.489 81H140.552L141.579 74.5H143.399L143.36 75.449C143.724 74.812 144.374 74.396 145.193 74.396C145.44 74.396 145.7 74.422 145.934 74.487Z" fill="#939393"/>
<path d="M147.671 81.169C146.488 81.169 145.682 80.441 145.682 79.362C145.682 78.01 146.631 77.204 148.36 77.061L150.18 76.905L150.193 76.788C150.271 76.138 149.894 75.787 149.166 75.787C148.425 75.787 148.009 76.099 147.918 76.723H146.228C146.462 75.176 147.593 74.305 149.374 74.305C151.285 74.305 152.312 75.423 152.026 77.191L151.415 81H149.712L149.725 80.129C149.426 80.753 148.594 81.169 147.671 81.169ZM148.451 79.726C149.257 79.726 149.842 79.271 149.946 78.543L149.998 78.192L148.958 78.283C147.996 78.361 147.645 78.634 147.645 79.128C147.645 79.505 147.931 79.726 148.451 79.726Z" fill="#939393"/>
<path d="M154.024 81.169C153.413 81.169 153.036 80.792 153.036 80.194C153.036 79.466 153.647 78.855 154.388 78.855C154.999 78.855 155.389 79.245 155.389 79.843C155.389 80.558 154.752 81.169 154.024 81.169Z" fill="#939393"/>
<defs>
<linearGradient id="paint0_linear_31_140" x1="78.68" y1="0.728027" x2="78.68" y2="84.12" gradientUnits="userSpaceOnUse">
<stop stop-color="#00D8F2"/>
<stop offset="0.543269" stop-color="#00E7C9"/>
<stop offset="1" stop-color="#00F6A3"/>
</linearGradient>
<linearGradient id="paint1_linear_31_140" x1="78.68" y1="0.728027" x2="78.68" y2="84.12" gradientUnits="userSpaceOnUse">
<stop stop-color="#00D8F2"/>
<stop offset="0.543269" stop-color="#00E7C9"/>
<stop offset="1" stop-color="#00F6A3"/>
</linearGradient>
<linearGradient id="paint2_linear_31_140" x1="78.68" y1="0.728027" x2="78.68" y2="84.12" gradientUnits="userSpaceOnUse">
<stop stop-color="#00D8F2"/>
<stop offset="0.543269" stop-color="#00E7C9"/>
<stop offset="1" stop-color="#00F6A3"/>
</linearGradient>
<linearGradient id="paint3_linear_31_140" x1="78.68" y1="0.728027" x2="78.68" y2="84.12" gradientUnits="userSpaceOnUse">
<stop stop-color="#00D8F2"/>
<stop offset="0.543269" stop-color="#00E7C9"/>
<stop offset="1" stop-color="#00F6A3"/>
</linearGradient>
</defs>
</svg>
