<svg width="158" height="66" viewBox="0 0 158 66" fill="none" xmlns="http://www.w3.org/2000/svg">
<path d="M27.8029 52V26.704H15.2909V52H4.81891V26.704H0.126906V18H4.81891V15.28C4.81891 5.148 10.0549 0.727999 18.0109 0.727999C19.4389 0.727999 21.0709 0.863998 22.7029 1.136V10.112H19.7789C16.1749 10.112 15.2909 12.356 15.2909 15.28V18H38.3429V52H27.8029ZM33.1069 12.696C29.7749 12.696 27.1229 10.044 27.1229 6.712C27.1229 3.38 29.7749 0.795999 33.1069 0.795999C36.3709 0.795999 39.0229 3.38 39.0229 6.712C39.0229 10.044 36.3709 12.696 33.1069 12.696ZM56.7598 52H46.2878V18H56.1478L56.8278 21.536C58.9358 18.612 62.8118 16.912 67.2318 16.912C75.3238 16.912 80.0158 22.08 80.0158 30.988V52H69.5438V33.504C69.5438 29.22 67.1638 26.432 63.5598 26.432C59.4118 26.432 56.7598 29.152 56.7598 33.368V52ZM95.346 52.272C93.714 52.272 92.1727 51.7053 90.722 50.572C89.3167 49.4387 88.1607 47.784 87.254 45.608C86.3927 43.432 85.962 40.8027 85.962 37.72C85.962 34.5467 86.4154 31.7133 87.322 29.22C88.2287 26.7267 89.4074 24.6187 90.858 22.896C92.354 21.128 93.9634 19.7907 95.686 18.884C97.454 17.9773 99.1767 17.524 100.854 17.524C102.713 17.524 104.367 18.1133 105.818 19.292C107.269 20.4253 108.266 22.216 108.81 24.664C109.218 22.3973 109.558 20.244 109.83 18.204C110.147 16.1187 110.306 14.2827 110.306 12.696C110.306 10.6107 110.034 9.092 109.49 8.14V7.732C110.533 6.55333 111.666 5.692 112.89 5.148C114.159 4.55867 115.361 4.264 116.494 4.264C117.99 4.264 119.259 4.74 120.302 5.692C121.345 6.59866 121.866 7.91333 121.866 9.636C121.866 10.588 121.707 11.9933 121.39 13.852C121.073 15.7107 120.687 17.8413 120.234 20.244C119.781 22.6013 119.305 25.0493 118.806 27.588C118.353 30.0813 117.967 32.484 117.65 34.796C117.333 37.0627 117.174 39.0347 117.174 40.712C117.174 42.1173 117.31 43.2507 117.582 44.112C117.899 44.928 118.398 45.336 119.078 45.336C119.577 45.336 120.075 45.1773 120.574 44.86C121.118 44.4973 121.481 44.0893 121.662 43.636L122.138 43.976C122.138 45.472 121.662 46.8547 120.71 48.124C119.758 49.348 118.557 50.3453 117.106 51.116C115.655 51.8867 114.159 52.272 112.618 52.272C110.941 52.272 109.603 51.8187 108.606 50.912C107.654 49.96 106.974 48.7587 106.566 47.308C106.158 45.8573 105.931 44.3613 105.886 42.82C104.481 46.084 102.826 48.4867 100.922 50.028C99.0634 51.524 97.2047 52.272 95.346 52.272ZM99.902 43.636C101.081 43.636 102.395 42.5707 103.846 40.44C105.297 38.3093 106.566 35.204 107.654 31.124L108.062 29.016C107.337 27.3387 106.543 26.16 105.682 25.48C104.866 24.7547 104.073 24.392 103.302 24.392C102.169 24.392 101.103 25.0267 100.106 26.296C99.1087 27.52 98.2927 29.1067 97.658 31.056C97.0687 32.96 96.774 34.9773 96.774 37.108C96.774 39.148 97.0687 40.7573 97.658 41.936C98.2474 43.0693 98.9954 43.636 99.902 43.636ZM139.077 65.6C136.81 65.6 134.974 64.8973 133.569 63.492C132.209 62.132 131.529 60.2733 131.529 57.916C131.529 56.692 131.733 55.332 132.141 53.836C132.594 52.3853 133.32 50.844 134.317 49.212C132.096 49.076 130.26 48.328 128.809 46.968C127.404 45.608 126.701 43.5453 126.701 40.78C126.701 39.148 126.905 37.4027 127.313 35.544C127.766 33.64 128.197 31.872 128.605 30.24C129.013 28.5627 129.217 27.2707 129.217 26.364C129.217 25.684 129.081 25.208 128.809 24.936C128.537 24.6187 128.22 24.46 127.857 24.46C127.494 24.46 127.086 24.6187 126.633 24.936C126.225 25.208 125.908 25.6387 125.681 26.228L124.525 25.004C124.797 23.5987 125.386 22.352 126.293 21.264C127.2 20.176 128.31 19.3147 129.625 18.68C130.94 18.0453 132.3 17.728 133.705 17.728C135.292 17.728 136.674 18.2493 137.853 19.292C139.032 20.2893 139.621 22.1253 139.621 24.8C139.621 26.4773 139.417 28.2907 139.009 30.24C138.601 32.144 138.193 33.9573 137.785 35.68C137.377 37.3573 137.173 38.6947 137.173 39.692C137.173 40.5987 137.354 41.2787 137.717 41.732C138.125 42.14 138.578 42.344 139.077 42.344C139.712 42.344 140.437 42.004 141.253 41.324C142.069 40.5987 142.84 39.42 143.565 37.788C144.29 36.156 144.766 33.9573 144.993 31.192C145.084 30.3307 145.152 29.2427 145.197 27.928C145.242 26.568 145.288 25.3213 145.333 24.188C145.378 23.0093 145.401 22.284 145.401 22.012C145.401 20.38 145.99 19.2467 147.169 18.612C148.393 17.932 149.73 17.592 151.181 17.592C152.45 17.592 153.652 17.8413 154.785 18.34C155.918 18.8387 156.689 19.6773 157.097 20.856L157.233 21.264C156.825 21.6267 156.462 22.8507 156.145 24.936C155.873 27.0213 155.533 29.8093 155.125 33.3C154.853 35.5667 154.513 38.128 154.105 40.984C153.697 43.84 153.13 46.7187 152.405 49.62C151.725 52.476 150.796 55.1053 149.617 57.508C148.484 59.956 147.056 61.9053 145.333 63.356C143.61 64.852 141.525 65.6 139.077 65.6ZM137.445 57.78C138.85 57.78 140.097 56.488 141.185 53.904C142.318 51.3653 143.202 47.7387 143.837 43.024C140.936 46.7413 138.941 49.6653 137.853 51.796C136.765 53.9267 136.221 55.468 136.221 56.42C136.221 57.3267 136.629 57.78 137.445 57.78Z" fill="url(#paint0_linear_31_134)"/>
<defs>
<linearGradient id="paint0_linear_31_134" x1="79" y1="-30" x2="79" y2="71" gradientUnits="userSpaceOnUse">
<stop stop-color="#00D8F2"/>
<stop offset="0.543269" stop-color="#00E7C9"/>
<stop offset="1" stop-color="#00F6A3"/>
</linearGradient>
</defs>
</svg>
